<mxfile host="app.diagrams.net" modified="2023-05-23T02:39:26.991Z" agent="Mozilla/5.0 (Windows NT 10.0; Win64; x64) AppleWebKit/537.36 (KHTML, like Gecko) Chrome/113.0.0.0 Safari/537.36" etag="alhBiSQhYdZoeQhvZAZA" version="21.3.2" type="device">
  <diagram name="第 1 页" id="bljMnG3Z-NQza5_7c3_W">
    <mxGraphModel dx="1050" dy="590" grid="1" gridSize="10" guides="1" tooltips="1" connect="1" arrows="1" fold="1" page="1" pageScale="1" pageWidth="827" pageHeight="1169" math="0" shadow="0">
      <root>
        <mxCell id="0" />
        <mxCell id="1" parent="0" />
        <mxCell id="hX3keQ4A4VEMZjhRxqOb-26" value="" style="ellipse;html=1;shape=startState;fillColor=#000000;strokeColor=#ff0000;" vertex="1" parent="1">
          <mxGeometry x="384" y="40" width="30" height="30" as="geometry" />
        </mxCell>
        <mxCell id="hX3keQ4A4VEMZjhRxqOb-27" value="" style="edgeStyle=orthogonalEdgeStyle;html=1;verticalAlign=bottom;endArrow=open;endSize=8;strokeColor=#ff0000;rounded=0;entryX=0.5;entryY=0;entryDx=0;entryDy=0;" edge="1" source="hX3keQ4A4VEMZjhRxqOb-26" parent="1" target="hX3keQ4A4VEMZjhRxqOb-29">
          <mxGeometry relative="1" as="geometry">
            <mxPoint x="399" y="110" as="targetPoint" />
          </mxGeometry>
        </mxCell>
        <mxCell id="hX3keQ4A4VEMZjhRxqOb-29" value="访问网站" style="rounded=1;whiteSpace=wrap;html=1;" vertex="1" parent="1">
          <mxGeometry x="339" y="110" width="120" height="60" as="geometry" />
        </mxCell>
        <mxCell id="hX3keQ4A4VEMZjhRxqOb-30" value="是否登录" style="rhombus;whiteSpace=wrap;html=1;" vertex="1" parent="1">
          <mxGeometry x="358.5" y="200" width="81" height="60" as="geometry" />
        </mxCell>
        <mxCell id="hX3keQ4A4VEMZjhRxqOb-31" value="" style="endArrow=classic;html=1;rounded=0;exitX=0.5;exitY=1;exitDx=0;exitDy=0;entryX=0.5;entryY=0;entryDx=0;entryDy=0;" edge="1" parent="1" source="hX3keQ4A4VEMZjhRxqOb-29" target="hX3keQ4A4VEMZjhRxqOb-30">
          <mxGeometry width="50" height="50" relative="1" as="geometry">
            <mxPoint x="390" y="340" as="sourcePoint" />
            <mxPoint x="440" y="290" as="targetPoint" />
          </mxGeometry>
        </mxCell>
        <mxCell id="hX3keQ4A4VEMZjhRxqOb-33" value="" style="endArrow=classic;html=1;rounded=0;exitX=1;exitY=0.5;exitDx=0;exitDy=0;edgeStyle=orthogonalEdgeStyle;" edge="1" parent="1" source="hX3keQ4A4VEMZjhRxqOb-30">
          <mxGeometry width="50" height="50" relative="1" as="geometry">
            <mxPoint x="390" y="340" as="sourcePoint" />
            <mxPoint x="600" y="280" as="targetPoint" />
          </mxGeometry>
        </mxCell>
        <mxCell id="hX3keQ4A4VEMZjhRxqOb-34" value="" style="endArrow=classic;html=1;rounded=0;exitX=0;exitY=0.5;exitDx=0;exitDy=0;edgeStyle=orthogonalEdgeStyle;" edge="1" parent="1" source="hX3keQ4A4VEMZjhRxqOb-30">
          <mxGeometry width="50" height="50" relative="1" as="geometry">
            <mxPoint x="390" y="340" as="sourcePoint" />
            <mxPoint x="200" y="280" as="targetPoint" />
          </mxGeometry>
        </mxCell>
        <mxCell id="hX3keQ4A4VEMZjhRxqOb-35" value="是" style="text;html=1;align=center;verticalAlign=middle;resizable=0;points=[];autosize=1;strokeColor=none;fillColor=none;" vertex="1" parent="1">
          <mxGeometry x="310" y="198" width="40" height="30" as="geometry" />
        </mxCell>
        <mxCell id="hX3keQ4A4VEMZjhRxqOb-36" value="否" style="text;html=1;align=center;verticalAlign=middle;resizable=0;points=[];autosize=1;strokeColor=none;fillColor=none;" vertex="1" parent="1">
          <mxGeometry x="450" y="198" width="40" height="30" as="geometry" />
        </mxCell>
        <mxCell id="hX3keQ4A4VEMZjhRxqOb-37" value="浏览博客" style="rounded=1;whiteSpace=wrap;html=1;" vertex="1" parent="1">
          <mxGeometry x="70" y="340" width="120" height="60" as="geometry" />
        </mxCell>
        <mxCell id="hX3keQ4A4VEMZjhRxqOb-42" value="" style="shape=line;html=1;strokeWidth=6;strokeColor=#ff0000;" vertex="1" parent="1">
          <mxGeometry x="100" y="280" width="200" height="10" as="geometry" />
        </mxCell>
        <mxCell id="hX3keQ4A4VEMZjhRxqOb-46" value="编辑博客" style="rounded=1;whiteSpace=wrap;html=1;" vertex="1" parent="1">
          <mxGeometry x="200" y="340" width="120" height="60" as="geometry" />
        </mxCell>
        <mxCell id="hX3keQ4A4VEMZjhRxqOb-47" value="" style="endArrow=block;endFill=1;html=1;align=left;verticalAlign=top;rounded=0;entryX=0.5;entryY=0;entryDx=0;entryDy=0;exitX=0.146;exitY=0.64;exitDx=0;exitDy=0;exitPerimeter=0;" edge="1" parent="1" source="hX3keQ4A4VEMZjhRxqOb-42" target="hX3keQ4A4VEMZjhRxqOb-37">
          <mxGeometry x="-1" relative="1" as="geometry">
            <mxPoint x="330" y="310" as="sourcePoint" />
            <mxPoint x="490" y="310" as="targetPoint" />
          </mxGeometry>
        </mxCell>
        <mxCell id="hX3keQ4A4VEMZjhRxqOb-49" value="" style="endArrow=block;endFill=1;html=1;align=left;verticalAlign=top;rounded=0;entryX=0.5;entryY=0;entryDx=0;entryDy=0;exitX=0.146;exitY=0.64;exitDx=0;exitDy=0;exitPerimeter=0;" edge="1" parent="1">
          <mxGeometry x="-1" relative="1" as="geometry">
            <mxPoint x="250" y="286" as="sourcePoint" />
            <mxPoint x="251" y="340" as="targetPoint" />
          </mxGeometry>
        </mxCell>
        <mxCell id="hX3keQ4A4VEMZjhRxqOb-51" value="" style="endArrow=block;endFill=1;html=1;align=left;verticalAlign=top;rounded=0;entryX=0.5;entryY=0;entryDx=0;entryDy=0;exitX=0.146;exitY=0.64;exitDx=0;exitDy=0;exitPerimeter=0;" edge="1" parent="1">
          <mxGeometry x="-1" relative="1" as="geometry">
            <mxPoint x="129.5" y="400" as="sourcePoint" />
            <mxPoint x="130.5" y="454" as="targetPoint" />
          </mxGeometry>
        </mxCell>
        <mxCell id="hX3keQ4A4VEMZjhRxqOb-53" value="" style="endArrow=block;endFill=1;html=1;align=left;verticalAlign=top;rounded=0;exitX=0.5;exitY=1;exitDx=0;exitDy=0;" edge="1" parent="1" source="hX3keQ4A4VEMZjhRxqOb-46">
          <mxGeometry x="-1" relative="1" as="geometry">
            <mxPoint x="139.5" y="410" as="sourcePoint" />
            <mxPoint x="260" y="450" as="targetPoint" />
          </mxGeometry>
        </mxCell>
        <mxCell id="hX3keQ4A4VEMZjhRxqOb-54" value="" style="shape=line;html=1;strokeWidth=6;strokeColor=#ff0000;" vertex="1" parent="1">
          <mxGeometry x="100" y="450" width="200" height="10" as="geometry" />
        </mxCell>
        <mxCell id="hX3keQ4A4VEMZjhRxqOb-55" value="是否注册" style="rhombus;whiteSpace=wrap;html=1;" vertex="1" parent="1">
          <mxGeometry x="560" y="280" width="81" height="60" as="geometry" />
        </mxCell>
        <mxCell id="hX3keQ4A4VEMZjhRxqOb-56" value="" style="endArrow=classic;html=1;rounded=0;exitX=0;exitY=0.5;exitDx=0;exitDy=0;edgeStyle=orthogonalEdgeStyle;entryX=0.5;entryY=1;entryDx=0;entryDy=0;" edge="1" parent="1" source="hX3keQ4A4VEMZjhRxqOb-55" target="hX3keQ4A4VEMZjhRxqOb-30">
          <mxGeometry width="50" height="50" relative="1" as="geometry">
            <mxPoint x="384" y="370" as="sourcePoint" />
            <mxPoint x="544" y="420" as="targetPoint" />
          </mxGeometry>
        </mxCell>
        <mxCell id="hX3keQ4A4VEMZjhRxqOb-57" value="是" style="text;html=1;align=center;verticalAlign=middle;resizable=0;points=[];autosize=1;strokeColor=none;fillColor=none;" vertex="1" parent="1">
          <mxGeometry x="510" y="278" width="40" height="30" as="geometry" />
        </mxCell>
        <mxCell id="hX3keQ4A4VEMZjhRxqOb-58" value="" style="endArrow=classic;html=1;rounded=0;exitX=0.5;exitY=1;exitDx=0;exitDy=0;" edge="1" parent="1" source="hX3keQ4A4VEMZjhRxqOb-55">
          <mxGeometry width="50" height="50" relative="1" as="geometry">
            <mxPoint x="470" y="410" as="sourcePoint" />
            <mxPoint x="601" y="390" as="targetPoint" />
          </mxGeometry>
        </mxCell>
        <mxCell id="hX3keQ4A4VEMZjhRxqOb-59" value="浏览博客" style="rounded=1;whiteSpace=wrap;html=1;" vertex="1" parent="1">
          <mxGeometry x="540.5" y="390" width="120" height="60" as="geometry" />
        </mxCell>
        <mxCell id="hX3keQ4A4VEMZjhRxqOb-60" value="否" style="text;html=1;align=center;verticalAlign=middle;resizable=0;points=[];autosize=1;strokeColor=none;fillColor=none;" vertex="1" parent="1">
          <mxGeometry x="570" y="338" width="40" height="30" as="geometry" />
        </mxCell>
        <mxCell id="hX3keQ4A4VEMZjhRxqOb-61" value="" style="endArrow=classic;html=1;rounded=0;exitX=0.5;exitY=1;exitDx=0;exitDy=0;edgeStyle=orthogonalEdgeStyle;entryX=1;entryY=0.5;entryDx=0;entryDy=0;" edge="1" parent="1" source="hX3keQ4A4VEMZjhRxqOb-59" target="hX3keQ4A4VEMZjhRxqOb-63">
          <mxGeometry width="50" height="50" relative="1" as="geometry">
            <mxPoint x="600.5" y="550" as="sourcePoint" />
            <mxPoint x="530" y="550" as="targetPoint" />
          </mxGeometry>
        </mxCell>
        <mxCell id="hX3keQ4A4VEMZjhRxqOb-62" value="" style="endArrow=classic;html=1;rounded=0;edgeStyle=orthogonalEdgeStyle;" edge="1" parent="1" source="hX3keQ4A4VEMZjhRxqOb-54" target="hX3keQ4A4VEMZjhRxqOb-63">
          <mxGeometry width="50" height="50" relative="1" as="geometry">
            <mxPoint x="381" y="560" as="sourcePoint" />
            <mxPoint x="330" y="500" as="targetPoint" />
            <Array as="points">
              <mxPoint x="200" y="500" />
            </Array>
          </mxGeometry>
        </mxCell>
        <mxCell id="hX3keQ4A4VEMZjhRxqOb-63" value="" style="rhombus;whiteSpace=wrap;html=1;" vertex="1" parent="1">
          <mxGeometry x="358.5" y="470" width="81" height="60" as="geometry" />
        </mxCell>
        <mxCell id="hX3keQ4A4VEMZjhRxqOb-65" value="" style="ellipse;html=1;shape=endState;fillColor=#000000;strokeColor=#ff0000;" vertex="1" parent="1">
          <mxGeometry x="384" y="570" width="30" height="30" as="geometry" />
        </mxCell>
        <mxCell id="hX3keQ4A4VEMZjhRxqOb-66" value="" style="endArrow=block;endFill=1;html=1;align=left;verticalAlign=top;rounded=0;exitX=0.5;exitY=1;exitDx=0;exitDy=0;" edge="1" parent="1" source="hX3keQ4A4VEMZjhRxqOb-63" target="hX3keQ4A4VEMZjhRxqOb-65">
          <mxGeometry x="-1" relative="1" as="geometry">
            <mxPoint x="270" y="410" as="sourcePoint" />
            <mxPoint x="270" y="460" as="targetPoint" />
          </mxGeometry>
        </mxCell>
        <mxCell id="hX3keQ4A4VEMZjhRxqOb-67" value="博客系统" style="shape=umlFrame;whiteSpace=wrap;html=1;pointerEvents=0;" vertex="1" parent="1">
          <mxGeometry x="40" y="40" width="680" height="580" as="geometry" />
        </mxCell>
      </root>
    </mxGraphModel>
  </diagram>
</mxfile>
